<?xml version="1.0" standalone="no"?>
<!DOCTYPE svg PUBLIC "-//W3C//DTD SVG 20010904//EN"
 "http://www.w3.org/TR/2001/REC-SVG-20010904/DTD/svg10.dtd">
<svg version="1.0" xmlns="http://www.w3.org/2000/svg"
 width="403.000000pt" height="425.000000pt" viewBox="0 0 403.000000 425.000000"
 preserveAspectRatio="xMidYMid meet">

<g transform="translate(0.000000,425.000000) scale(0.100000,-0.100000)"
fill="#000000" stroke="none">
<path d="M3215 4179 c-82 -27 -116 -41 -112 -45 4 -5 174 50 183 59 12 11 -7
8 -71 -14z"/>
<path d="M3037 4110 c-28 -11 -75 -44 -115 -82 -37 -35 -111 -96 -164 -136
-97 -72 -296 -274 -290 -293 1 -6 -1 -8 -5 -6 -14 9 -100 -60 -142 -113 -22
-27 -54 -79 -73 -116 -24 -48 -34 -60 -36 -45 -4 27 -22 17 -22 -12 0 -12 8
-44 19 -72 34 -90 38 -112 35 -161 -2 -43 -2 -46 7 -19 5 17 10 47 10 67 1 21
4 36 8 34 9 -6 35 16 39 32 1 7 12 33 23 57 12 24 19 50 16 57 -4 8 -8 5 -12
-9 -5 -14 -15 -23 -27 -23 -10 0 -17 -4 -14 -9 3 -4 -3 -25 -13 -45 l-19 -37
-16 23 c-22 31 -21 36 15 69 22 20 29 34 24 48 -4 15 0 21 17 24 l23 4 -22 2
c-25 1 -32 31 -8 31 8 0 15 5 15 11 0 5 -5 7 -11 4 -6 -4 -5 2 3 14 7 12 16
21 20 21 4 0 5 6 2 13 -3 8 3 20 12 28 12 9 15 10 10 2 -4 -7 -3 -13 3 -13 6
0 14 12 17 26 4 16 12 23 20 20 8 -3 14 1 14 9 0 8 6 16 13 16 6 1 17 2 24 3
16 2 55 54 49 64 -10 16 196 216 329 319 72 56 144 115 160 133 17 17 49 40
73 51 23 11 42 22 42 24 0 6 3 7 -53 -15z"/>
<path d="M2015 3740 c-3 -6 0 -13 9 -16 9 -3 13 -14 10 -29 -3 -16 2 -24 16
-28 24 -6 25 0 4 41 -18 37 -30 47 -39 32z"/>
<path d="M1744 3658 l-19 -23 23 19 c21 18 27 26 19 26 -2 0 -12 -10 -23 -22z"/>
<path d="M1943 3540 c-10 -11 -25 -28 -34 -38 -8 -10 -14 -23 -12 -28 2 -6
-11 -8 -30 -6 -28 3 -37 -1 -53 -25 -10 -15 -20 -35 -21 -43 -1 -8 -5 -26 -8
-40 -4 -14 -8 -34 -10 -45 -2 -11 -4 -20 -5 -20 -1 0 -3 -14 -4 -31 -2 -37
-25 -71 -36 -53 -5 8 -14 5 -29 -10 -21 -21 -20 -48 1 -35 7 4 8 2 4 -5 -4 -6
-2 -19 5 -27 14 -17 4 -33 -12 -17 -14 14 -32 8 -89 -32 -56 -39 -78 -47 -83
-32 -2 8 -24 1 -64 -20 -33 -17 -69 -30 -79 -28 -11 2 -21 4 -23 4 -2 1 4 10
14 21 10 11 21 17 25 15 15 -9 57 13 62 33 4 12 -4 31 -18 47 -13 16 -25 32
-25 37 -1 4 -2 12 -3 17 0 6 -7 16 -15 23 -10 9 -12 9 -7 1 4 -7 1 -23 -5 -35
-12 -22 -11 -22 6 -8 17 14 18 13 12 -3 -4 -11 -3 -16 3 -12 15 9 12 -15 -4
-31 -8 -8 -23 -14 -34 -14 -13 0 -24 -10 -30 -29 -9 -25 -8 -29 4 -24 20 8 17
-11 -5 -31 -19 -17 -20 -17 -30 2 -8 15 -8 21 1 24 12 4 -43 10 -84 9 -10 0
-20 4 -23 9 -4 6 -14 5 -24 -2 -15 -9 -22 -8 -36 5 -9 9 -20 17 -24 17 -9 0
-61 73 -72 100 -4 8 -2 18 4 21 5 4 6 12 1 20 -12 19 -14 39 -4 39 4 0 6 9 3
20 -3 11 1 28 8 37 10 12 10 15 1 9 -24 -15 -44 -68 -39 -107 5 -40 28 -76 95
-153 27 -31 42 -56 39 -67 -4 -15 3 -18 57 -17 71 0 98 -3 90 -11 -3 -3 -9 -6
-12 -6 -15 -1 -132 -68 -145 -84 -8 -9 -18 -26 -21 -38 -6 -19 -3 -23 13 -23
12 0 21 6 21 13 0 7 6 22 14 32 13 18 14 18 31 2 10 -10 15 -26 12 -37 -3 -12
0 -20 8 -20 7 0 16 11 19 24 6 25 69 79 64 55 -2 -7 5 -15 15 -17 10 -2 17 2
17 12 0 9 5 16 11 16 5 0 7 -5 3 -11 -4 -7 1 -7 16 1 12 6 24 9 27 6 3 -3 18
3 33 14 16 11 36 20 45 20 10 0 13 5 9 13 -5 7 0 6 11 -3 17 -14 18 -13 12 3
-7 19 3 23 21 5 8 -8 15 -8 27 2 12 10 15 10 15 -4 0 -9 7 -19 15 -22 8 -4 13
-10 10 -14 -7 -11 5 -40 16 -40 4 0 6 7 3 15 -4 8 -1 15 5 15 6 0 11 -7 11
-15 0 -8 9 -15 20 -15 11 0 23 -6 26 -14 8 -20 55 -12 75 13 9 11 22 21 29 21
6 0 8 5 5 11 -4 6 2 5 13 -2 32 -20 35 -55 11 -110 -13 -27 -28 -49 -35 -49
-6 0 -14 -6 -17 -14 -4 -9 1 -12 16 -10 12 2 43 7 70 10 26 4 47 11 47 15 0 5
5 9 12 9 6 0 19 7 28 15 14 13 22 13 46 4 16 -7 31 -13 34 -13 3 -1 11 -5 18
-9 6 -5 16 -6 20 -3 5 3 19 -4 30 -15 19 -17 22 -18 22 -3 0 16 1 16 18 1 23
-21 46 -7 40 25 l-5 25 56 -12 c31 -7 77 -23 103 -36 40 -19 51 -31 65 -68 9
-26 29 -60 45 -77 16 -17 26 -33 23 -36 -3 -3 1 -8 10 -12 9 -3 14 -2 11 3 -7
11 60 19 77 9 9 -6 9 -8 0 -8 -7 0 -13 -7 -13 -15 0 -11 11 -15 43 -15 28 0
37 3 28 9 -8 5 -21 7 -29 3 -10 -3 -13 -1 -8 6 9 14 58 16 72 3 5 -5 41 -13
79 -16 67 -7 73 -6 103 20 18 15 32 33 32 40 0 7 7 16 16 19 8 3 12 11 9 17
-6 8 -32 -22 -59 -68 -1 0 -19 -4 -41 -8 -33 -6 -38 -5 -27 6 6 7 12 21 12 32
0 18 30 57 30 40 0 -4 5 0 11 10 5 9 17 17 25 17 8 0 12 5 9 10 -4 6 4 20 17
31 22 19 22 20 1 10 -15 -8 -24 -8 -28 0 -5 6 -11 4 -19 -6 -9 -12 -22 -15
-54 -11 -25 3 -40 1 -37 -4 3 -6 -1 -7 -9 -4 -19 7 -22 -26 -5 -43 7 -7 6 -12
-5 -16 -12 -5 -16 0 -16 21 0 20 -3 23 -9 13 -5 -8 -7 -21 -3 -29 3 -10 1 -13
-6 -8 -18 11 -14 -10 5 -25 11 -10 17 -11 20 -2 6 16 58 0 58 -18 0 -10 -14
-15 -47 -17 -38 -2 -48 0 -48 12 0 9 -6 13 -12 11 -7 -2 -37 -1 -67 3 -42 5
-55 11 -57 26 -3 25 -28 41 -32 21 -4 -16 -37 -29 -52 -20 -5 3 -17 30 -26 60
-8 30 -21 58 -29 62 -19 11 -23 37 -6 38 8 0 19 8 24 17 9 13 3 23 -29 52 -48
43 -116 76 -121 59 -3 -7 -16 -9 -31 -7 -35 7 -37 10 -22 29 7 8 10 15 6 15
-4 0 1 15 9 33 11 23 12 27 2 15 -8 -10 -17 -15 -20 -12 -3 4 -13 -1 -22 -10
-15 -15 -12 -21 8 -17 9 2 4 -10 -24 -50 -10 -14 -16 -29 -12 -33 3 -3 -1 -6
-11 -6 -9 0 -15 -4 -12 -9 3 -5 -1 -11 -9 -15 -8 -3 -15 -1 -15 4 0 5 -13 7
-30 5 -16 -2 -30 0 -30 4 0 5 -14 11 -30 15 -60 11 -138 57 -151 87 -6 16 -15
29 -19 29 -4 0 -5 11 -2 25 2 14 0 25 -5 25 -5 0 -15 16 -23 35 -8 19 -21 35
-29 35 -13 0 -13 2 -2 9 7 5 10 14 7 20 -5 8 3 11 23 9 31 -2 41 -13 19 -20
-7 -3 -8 -10 -4 -17 7 -11 10 -11 17 0 6 10 9 11 9 2 0 -13 26 -13 48 0 8 6
12 1 13 -15 0 -23 0 -23 9 -2 5 12 15 26 22 30 11 6 11 5 0 -8 -10 -13 -10
-17 3 -22 21 -7 33 23 14 35 -8 5 -26 8 -41 6 -15 -2 -24 1 -21 5 7 12 -29 39
-44 33 -18 -6 -16 14 2 21 8 4 15 17 15 31 0 16 -4 22 -12 17 -7 -4 -8 -3 -4
4 9 15 33 15 42 0 4 -7 3 -8 -4 -4 -7 4 -12 2 -12 -3 0 -19 22 -12 27 9 3 11
9 20 13 20 4 0 10 9 13 20 3 11 12 20 20 20 10 0 14 8 13 25 -2 13 0 22 4 20
4 -3 13 2 20 9 9 12 7 17 -8 25 -23 12 -28 69 -6 78 12 4 12 8 2 21 -11 13
-11 14 1 7 11 -6 13 -4 8 7 -3 9 0 21 6 27 8 8 7 11 -6 11 -19 0 -23 15 -7 25
6 3 10 10 10 16 0 15 -19 10 -37 -11z m-148 -349 c-4 -13 0 -24 12 -31 16 -11
17 -11 1 -6 -12 4 -18 0 -18 -11 0 -13 -2 -13 -16 -2 -10 8 -12 15 -5 17 6 2
8 14 5 28 -5 18 -2 24 11 24 12 0 15 -5 10 -19z m-75 -101 c0 -5 -5 -10 -11
-10 -5 0 -7 5 -4 10 3 6 8 10 11 10 2 0 4 -4 4 -10z m-365 -120 c-3 -5 -10
-10 -16 -10 -5 0 -9 5 -9 10 0 6 7 10 16 10 8 0 12 -4 9 -10z m75 -10 c0 -5
-5 -10 -11 -10 -5 0 -7 5 -4 10 3 6 8 10 11 10 2 0 4 -4 4 -10z m779 -111
c-16 -10 -23 -4 -14 10 3 6 11 8 17 5 6 -4 5 -9 -3 -15z m571 -199 c0 -5 -4
-10 -10 -10 -5 0 -10 5 -10 10 0 6 5 10 10 10 6 0 10 -4 10 -10z m-40 -4 c0
-3 -4 -8 -10 -11 -5 -3 -10 -1 -10 4 0 6 5 11 10 11 6 0 10 -2 10 -4z"/>
<path d="M2061 3475 c-16 -8 -20 -14 -11 -17 9 -3 11 -10 5 -24 -4 -10 -7 -22
-7 -26 1 -5 -3 -8 -9 -8 -6 0 -8 -7 -5 -16 6 -17 -4 -16 -46 1 -11 4 -18 3
-18 -5 0 -6 5 -8 10 -5 6 3 10 1 10 -4 0 -6 7 -11 15 -11 22 0 18 -16 -9 -38
-16 -12 -21 -23 -16 -31 6 -11 8 -11 12 -1 3 10 9 10 26 1 65 -33 60 -36 55
32 -3 39 1 80 10 110 17 53 13 61 -22 42z"/>
<path d="M1970 3420 c-8 -5 -12 -11 -9 -14 3 -3 14 1 25 9 21 16 8 20 -16 5z"/>
<path d="M2345 3378 c-13 -42 -13 -48 -3 -55 7 -3 8 -1 4 6 -4 6 0 14 8 17 17
6 23 54 7 54 -5 0 -12 -10 -16 -22z"/>
<path d="M2030 3261 c0 -6 5 -13 10 -16 6 -3 10 1 10 9 0 9 -4 16 -10 16 -5 0
-10 -4 -10 -9z"/>
<path d="M1790 3099 c0 -5 5 -7 10 -4 6 3 10 8 10 11 0 2 -4 4 -10 4 -5 0 -10
-5 -10 -11z"/>
<path d="M1849 3043 c-13 -16 -12 -17 4 -4 9 7 17 15 17 17 0 8 -8 3 -21 -13z"/>
<path d="M1989 3039 c-9 -17 -8 -23 2 -30 10 -6 16 -2 21 12 4 11 12 17 18 14
5 -3 10 -2 10 3 0 8 -22 22 -35 22 -3 0 -9 -10 -16 -21z"/>
<path d="M2138 2999 c-10 -10 -14 -19 -9 -19 6 0 13 5 16 10 9 15 27 12 19 -2
-5 -10 -4 -10 6 -1 12 11 6 34 -8 32 -4 0 -15 -9 -24 -20z"/>
<path d="M1550 2904 c0 -8 5 -12 10 -9 6 4 8 11 5 16 -9 14 -15 11 -15 -7z"/>
<path d="M3267 2912 c7 -4 10 -17 7 -30 -5 -15 -16 -23 -43 -27 -63 -11 -67
-13 -28 -14 55 -1 102 23 103 54 2 21 -3 25 -25 25 -16 0 -21 -3 -14 -8z"/>
<path d="M1290 2851 c0 -5 -31 -41 -70 -81 -38 -40 -70 -78 -70 -85 0 -8 -10
-21 -22 -29 -27 -19 -75 -104 -93 -166 l-7 -25 21 27 c11 14 21 36 21 47 0 12
6 21 14 21 7 0 34 33 59 73 26 40 58 83 71 95 14 11 35 40 46 62 12 23 27 43
35 47 17 6 20 23 5 23 -5 0 -10 -4 -10 -9z"/>
<path d="M1010 2784 c-41 -31 -127 -109 -190 -174 -93 -94 -130 -125 -187
-154 -40 -19 -76 -42 -80 -51 -5 -8 -20 -16 -33 -18 -16 -3 -26 -11 -28 -25
-3 -17 1 -19 20 -15 13 4 36 17 52 30 15 13 48 32 71 43 24 11 46 24 50 29 3
5 19 12 35 16 17 4 36 17 43 30 16 31 139 131 171 139 13 3 27 14 31 25 3 10
17 23 30 29 14 6 25 16 25 21 0 5 6 16 13 23 55 58 83 109 60 108 -5 -1 -42
-26 -83 -56z"/>
<path d="M3090 2824 l-45 -12 42 -1 c23 -1 45 4 48 10 11 16 4 17 -45 3z"/>
<path d="M2969 2825 c-1 -5 -1 -14 0 -19 1 -4 -4 -14 -10 -22 -18 -22 -4 -27
29 -10 33 17 54 40 27 30 -10 -4 -22 1 -30 12 -8 11 -15 15 -16 9z"/>
<path d="M2870 2770 c-11 -21 -8 -24 24 -20 10 1 22 -4 26 -10 5 -9 9 -9 14
-1 4 6 2 11 -3 11 -6 0 -11 5 -11 11 0 5 4 7 10 4 5 -3 7 0 5 7 -9 22 -53 20
-65 -2z"/>
<path d="M2480 2769 c0 -5 -4 -8 -9 -4 -15 8 -33 -33 -26 -56 4 -12 13 -18 20
-15 8 3 19 -2 25 -10 14 -16 35 -20 25 -4 -3 6 1 7 9 4 9 -3 16 -1 16 4 0 14
-41 43 -51 37 -19 -12 -16 26 4 40 18 12 19 15 4 15 -9 0 -17 -5 -17 -11z"/>
<path d="M2930 2695 c0 -9 -6 -12 -15 -9 -8 4 -15 2 -15 -4 0 -19 30 -21 40
-2 13 24 13 30 0 30 -5 0 -10 -7 -10 -15z"/>
<path d="M2635 2690 c-3 -5 -1 -10 4 -10 6 0 11 5 11 10 0 6 -2 10 -4 10 -3 0
-8 -4 -11 -10z"/>
<path d="M2120 2656 c0 -25 12 -46 25 -46 20 0 14 40 -7 51 -13 7 -18 6 -18
-5z"/>
<path d="M2182 2511 c21 -37 64 -69 76 -56 3 3 0 5 -7 5 -6 0 -21 16 -32 35
-12 20 -30 40 -41 46 -18 10 -18 7 4 -30z"/>
<path d="M2450 2518 c0 -19 24 -67 35 -72 9 -3 7 7 -7 32 -25 43 -28 47 -28
40z"/>
<path d="M2845 2500 c-25 -6 -20 -8 25 -8 39 0 49 2 35 8 -23 10 -21 10 -60 0z"/>
<path d="M2668 2493 c6 -2 18 -2 25 0 6 3 1 5 -13 5 -14 0 -19 -2 -12 -5z"/>
<path d="M2730 2490 c-8 -5 -10 -10 -5 -10 6 0 17 5 25 10 8 5 11 10 5 10 -5
0 -17 -5 -25 -10z"/>
<path d="M1011 2423 c-6 -21 -11 -45 -10 -53 0 -8 7 7 14 35 8 27 12 51 10 53
-2 2 -8 -13 -14 -35z"/>
<path d="M2500 2425 c0 -3 16 -40 35 -81 19 -41 35 -77 35 -81 0 -3 8 -12 18
-19 16 -13 16 -14 0 -8 -13 4 -18 1 -18 -11 0 -11 5 -15 15 -12 8 4 17 2 20
-4 16 -25 72 -37 126 -27 30 6 78 9 107 8 45 -1 54 2 59 18 2 11 14 24 26 30
l22 11 -22 0 c-21 1 -38 16 -38 36 0 6 -20 12 -45 15 -30 3 -45 10 -46 20 -2
34 -5 38 -24 33 -11 -3 -20 -1 -20 4 0 5 -13 8 -30 5 -19 -3 -30 0 -30 8 0 6
-8 10 -17 8 -10 -2 -26 5 -36 16 -15 17 -20 18 -27 6 -6 -8 -10 -10 -10 -4 0
20 -32 25 -50 9 -16 -14 -18 -14 -23 5 -4 17 -27 30 -27 15z m257 -164 c10
-15 10 -21 0 -24 -7 -3 -4 -6 6 -6 10 -1 16 -5 12 -11 -8 -13 -37 0 -31 15 7
19 -4 26 -24 15 -24 -13 -34 0 -12 16 24 18 35 17 49 -5z"/>
<path d="M2261 2410 c0 -13 6 -49 25 -129 l5 -24 21 23 c19 20 21 35 16 98 -1
11 -7 14 -25 11 -9 -1 -9 -1 1 -43 6 -26 5 -28 -8 -17 -9 8 -16 23 -17 35 -1
26 -17 68 -18 46z"/>
<path d="M819 2358 c-6 -12 -20 -31 -31 -42 -18 -20 -18 -21 -1 -25 10 -2 21
-8 24 -13 8 -13 68 18 76 39 4 10 -1 21 -13 29 -10 7 -24 18 -31 24 -9 7 -15
4 -24 -12z"/>
<path d="M943 2288 c-22 -29 -24 -41 -3 -20 12 13 20 25 17 28 -2 2 -9 -1 -14
-8z"/>
<path d="M2335 2270 c3 -5 8 -10 11 -10 2 0 4 5 4 10 0 6 -5 10 -11 10 -5 0
-7 -4 -4 -10z"/>
<path d="M3010 2269 c0 -5 5 -7 10 -4 6 3 10 8 10 11 0 2 -4 4 -10 4 -5 0 -10
-5 -10 -11z"/>
<path d="M2328 2220 c-7 -16 -19 -30 -26 -30 -7 0 -11 -4 -7 -9 3 -5 -3 -17
-12 -27 -13 -12 -14 -19 -5 -22 23 -7 12 -50 -25 -99 -20 -26 -29 -42 -19 -34
9 8 18 12 21 10 8 -9 -12 -30 -31 -33 -10 -2 -18 -9 -17 -15 2 -6 -8 -8 -26
-5 -23 5 -32 2 -40 -14 -19 -37 -14 -52 20 -52 19 0 28 -4 23 -11 -3 -6 -22
-9 -41 -7 -32 4 -33 3 -28 -23 5 -21 2 -30 -14 -38 -27 -15 -33 -14 -30 7 3
29 -1 42 -11 42 -5 0 -10 -12 -10 -27 0 -20 -3 -24 -12 -15 -7 7 -17 8 -29 2
-14 -8 -24 -3 -48 20 -16 17 -34 30 -40 30 -6 0 -11 5 -11 11 0 5 -4 8 -9 5
-9 -6 -76 43 -95 70 -16 22 -76 25 -76 5 0 -26 -24 -66 -40 -67 -8 -1 -17 -2
-20 -3 -3 -1 -17 -4 -32 -6 -14 -2 -38 -11 -52 -20 -14 -10 -33 -14 -42 -11
-9 3 -28 0 -42 -8 -15 -8 -35 -17 -45 -20 -11 -3 -21 -15 -24 -26 -4 -13 -22
-24 -58 -35 -29 -8 -57 -15 -63 -15 -5 0 -15 -7 -22 -14 -8 -11 -18 -12 -36
-5 -16 6 -32 5 -43 -1 -10 -5 -21 -7 -24 -4 -3 3 -4 -6 -3 -20 3 -23 -1 -26
-25 -26 -22 0 -29 -5 -29 -20 0 -16 -6 -19 -32 -16 -18 2 -34 8 -36 15 -2 6
-11 11 -19 11 -9 0 -22 8 -29 18 -10 14 -15 15 -25 5 -7 -7 -17 -13 -22 -13
-4 0 -5 6 -2 13 4 6 -2 3 -12 -9 -20 -22 -43 -21 -43 2 0 8 -5 13 -12 11 -7
-1 -12 13 -13 38 -2 59 -16 110 -25 95 -6 -9 -10 -7 -15 9 -3 11 -13 21 -22
21 -10 0 -13 6 -9 16 3 9 6 22 6 29 0 8 12 26 27 40 27 24 27 25 5 25 -14 0
-22 6 -22 18 -1 42 -21 -20 -27 -83 -6 -62 -4 -68 26 -110 18 -25 34 -56 35
-70 2 -14 12 -36 24 -48 12 -13 22 -31 22 -40 0 -26 47 -40 117 -33 34 3 65 1
68 -3 11 -19 132 -30 172 -17 61 22 10 -116 -77 -207 -53 -55 -68 -110 -26
-94 24 9 75 86 87 130 6 23 26 56 45 75 29 29 40 34 69 30 28 -3 35 -1 35 13
0 9 7 20 15 23 19 7 54 -13 50 -28 -2 -6 -6 -38 -9 -72 -3 -33 -7 -74 -10 -90
-3 -16 4 -1 15 34 11 34 25 62 30 62 5 0 9 9 9 21 0 11 3 18 8 16 4 -3 8 5 9
16 5 61 10 73 28 82 11 6 21 19 23 29 3 15 0 18 -17 13 -16 -4 -21 0 -21 13 0
22 22 41 36 32 23 -16 36 -72 29 -128 -5 -39 -3 -54 4 -50 6 4 11 37 11 77 0
38 4 69 9 69 12 0 32 -57 26 -73 -3 -7 -1 -32 4 -57 l9 -45 1 46 c2 105 14
200 24 190 5 -5 11 -31 12 -58 2 -26 12 -75 24 -108 11 -33 22 -98 25 -143 6
-96 23 -132 63 -132 26 0 26 0 19 58 -4 31 -17 80 -31 107 -33 70 -44 112 -46
175 -2 76 0 90 10 90 10 0 22 -39 27 -90 2 -19 14 -66 26 -105 l23 -70 3 47
c2 25 -4 72 -12 104 -8 32 -13 60 -11 62 8 8 25 -10 25 -27 0 -19 34 -128 55
-176 7 -16 20 -47 29 -67 23 -57 28 -46 6 16 -20 60 -14 90 15 66 15 -12 18
-12 26 3 15 26 34 20 52 -15 l17 -33 -6 33 c-6 32 -6 32 38 33 24 1 60 2 81 3
26 2 47 -4 64 -17 14 -12 24 -17 21 -11 -2 5 -10 23 -17 40 -7 18 -21 34 -32
37 -10 3 -19 10 -19 16 0 12 48 27 57 18 10 -11 45 14 39 29 -6 15 62 53 98
55 16 1 17 2 4 6 -15 4 -15 7 4 39 12 21 26 33 34 30 8 -3 13 -2 13 2 -4 22 3
32 20 32 11 0 26 6 33 13 7 8 19 12 26 9 6 -2 16 8 21 21 10 26 43 43 61 32 6
-4 10 5 10 19 0 14 -3 25 -7 25 -22 -4 -23 3 -3 19 22 18 21 50 -1 37 -5 -4
-16 1 -25 9 -8 9 -12 17 -7 17 4 1 13 2 18 4 6 1 16 3 23 3 7 1 11 6 8 11 -3
4 6 6 20 3 14 -2 22 -7 17 -11 -4 -3 -9 -10 -9 -16 -1 -5 -4 -28 -7 -50 -4
-22 -4 -34 -1 -27 3 6 16 12 30 12 17 0 22 4 18 15 -4 8 -2 15 3 15 11 0 11
-45 0 -56 -4 -4 -7 -15 -7 -25 0 -30 55 -4 70 32 46 110 -18 240 -120 242 -21
1 -25 -4 -25 -26 -1 -20 -11 -34 -37 -52 -39 -26 -51 -55 -44 -107 5 -30 0
-37 -53 -80 -44 -35 -67 -63 -92 -115 -27 -55 -42 -72 -73 -87 -43 -21 -84
-23 -116 -6 l-21 11 20 18 c20 17 20 18 -9 49 -17 19 -23 32 -16 32 8 0 21 15
30 33 8 17 16 28 16 23 0 -16 60 79 60 96 0 9 4 19 9 22 5 4 19 27 32 54 12
26 27 50 32 53 5 4 5 9 -2 13 -7 5 -8 13 -1 25 5 10 8 33 5 50 -2 22 1 31 11
31 8 0 14 6 15 13 1 6 3 29 4 50 5 45 -8 48 -27 7z m326 -301 c-19 -18 -21
-18 -21 -2 0 24 19 44 32 32 6 -6 2 -17 -11 -30z m-559 -139 c3 -5 1 -10 -4
-10 -6 0 -11 5 -11 10 0 6 2 10 4 10 3 0 8 -4 11 -10z m-88 -32 c-3 -8 -6 -5
-6 6 -1 11 2 17 5 13 3 -3 4 -12 1 -19z m78 -38 c-3 -5 1 -10 9 -10 10 0 15
-7 13 -20 -5 -32 -14 -33 -25 -1 -6 16 -8 32 -5 35 10 10 15 7 8 -4z m-205
-27 c0 -10 6 -13 16 -9 11 4 15 2 11 -8 -3 -8 -2 -16 3 -18 8 -3 17 -39 19
-76 1 -9 8 -11 21 -7 11 3 20 3 21 -2 0 -4 2 -16 4 -25 3 -19 -54 -54 -65 -41
-26 29 -64 223 -42 209 7 -4 12 -14 12 -23z m-50 -14 c0 -6 -4 -7 -10 -4 -5 3
-10 11 -10 16 0 6 5 7 10 4 6 -3 10 -11 10 -16z m126 -17 c-9 -9 -37 8 -31 18
5 8 11 7 21 -1 8 -6 12 -14 10 -17z m-486 -49 c0 -5 -5 -15 -10 -23 -7 -12
-12 -12 -22 -2 -10 10 -10 15 2 22 18 12 30 13 30 3z"/>
<path d="M886 2183 c-6 -14 -5 -15 5 -6 7 7 10 15 7 18 -3 3 -9 -2 -12 -12z"/>
<path d="M867 2140 c-3 -11 -2 -20 3 -20 4 0 10 9 13 20 3 11 2 20 -3 20 -4 0
-10 -9 -13 -20z"/>
<path d="M2125 2050 c3 -5 8 -10 11 -10 2 0 4 5 4 10 0 6 -5 10 -11 10 -5 0
-7 -4 -4 -10z"/>
<path d="M830 2031 c0 -25 6 -27 13 -6 4 8 2 17 -3 20 -6 4 -10 -3 -10 -14z"/>
<path d="M886 1963 c-11 -11 -6 -23 9 -23 8 0 15 4 15 9 0 13 -16 22 -24 14z"/>
<path d="M2260 1442 c0 -17 89 -72 140 -86 15 -5 7 3 -19 19 -25 14 -55 37
-67 50 -22 24 -54 34 -54 17z"/>
<path d="M1580 1381 c0 -5 -3 -16 -6 -25 -3 -9 -2 -16 3 -16 5 0 10 11 11 25
1 14 0 25 -3 25 -3 0 -5 -4 -5 -9z"/>
<path d="M2517 1321 c3 -12 19 -29 35 -37 31 -16 93 -16 93 0 0 15 -55 44 -97
51 -34 6 -36 5 -31 -14z"/>
<path d="M1946 1302 c-6 -10 37 -109 57 -129 28 -28 40 -3 21 43 -29 70 -64
109 -78 86z"/>
<path d="M1562 1210 c0 -14 2 -19 5 -12 2 6 2 18 0 25 -3 6 -5 1 -5 -13z"/>
<path d="M1900 1205 c0 -5 5 -17 10 -25 5 -8 10 -10 10 -5 0 6 -5 17 -10 25
-5 8 -10 11 -10 5z"/>
<path d="M1550 1157 c0 -8 -8 -29 -17 -48 -23 -47 -29 -129 -10 -154 9 -11 19
-16 23 -12 9 9 19 227 10 227 -3 0 -6 -6 -6 -13z"/>
<path d="M2170 1146 c0 -5 14 -33 30 -63 17 -29 30 -61 30 -70 0 -35 48 -119
88 -155 72 -65 82 -45 27 48 -20 32 -49 72 -66 87 -17 15 -48 58 -70 95 -21
37 -39 63 -39 58z"/>
<path d="M2016 945 c37 -108 56 -150 87 -193 35 -47 59 -67 69 -56 10 9 -73
160 -101 186 -16 14 -37 39 -46 55 -9 15 -13 19 -9 8z"/>
<path d="M1726 880 c9 -78 27 -149 35 -144 5 3 11 -8 15 -23 10 -48 12 -49 13
-5 1 23 -3 42 -9 42 -5 0 -7 6 -4 14 3 8 1 17 -5 21 -6 3 -11 15 -11 27 0 11
-6 34 -14 51 -8 18 -17 39 -20 47 -3 8 -3 -5 0 -30z"/>
<path d="M1257 763 c-55 -88 -75 -146 -57 -168 6 -8 17 -12 25 -9 21 8 67 121
60 147 -5 17 -4 19 4 7 8 -12 11 -8 11 17 0 47 -16 49 -43 6z m-6 -120 c-12
-20 -14 -14 -5 12 4 9 9 14 11 11 3 -2 0 -13 -6 -23z"/>
</g>
</svg>
